<svg width="48" height="48" viewBox="0 0 48 48" fill="none" xmlns="http://www.w3.org/2000/svg">
<path d="M24 0C10.8 0 0 10.8 0 24C0 37.2 10.8 48 24 48C37.2 48 48 37.2 48 24C48 10.8 37.2 0 24 0ZM33.7368 34.5744C33.2856 34.5744 33.06 34.3488 32.6088 34.1232C29.2224 32.0904 24.9336 30.9624 20.4192 30.9624C17.9352 30.9624 15.228 31.4136 12.9696 31.8648C12.5184 31.8648 12.0672 32.0904 11.8416 32.0904C10.9392 32.0904 10.2624 31.4136 10.2624 30.5112C10.2624 29.6088 10.7136 28.932 11.616 28.932C14.5512 28.2552 17.4864 27.804 20.6472 27.804C25.8384 27.804 30.5808 29.1576 34.644 31.416C35.0952 31.8672 35.5464 32.0928 35.5464 32.9952C35.0904 34.1232 34.4136 34.5744 33.7368 34.5744ZM36.2184 28.2552C35.7672 28.2552 35.316 28.0296 34.8648 27.804C31.0272 25.32 25.608 23.9664 19.74 23.9664C16.8048 23.9664 14.0952 24.4176 12.0648 24.8688C11.6136 25.0944 11.388 25.0944 10.9368 25.0944C9.8088 25.0944 9.1296 24.192 9.1296 23.2872C9.1296 22.1592 9.5808 21.708 10.7088 21.2544C13.4184 20.5776 16.128 19.9008 19.9656 19.9008C26.2872 19.9008 32.1552 21.48 37.1232 24.4152C37.8 24.8664 38.2512 25.5432 38.2512 26.2224C38.0256 27.3504 37.3488 28.2552 36.2184 28.2552ZM39.1536 21.0288C38.7024 21.0288 38.4768 20.8032 37.8 20.5776C33.2856 18.0936 26.7384 16.5144 20.4168 16.5144C17.256 16.5144 13.8696 16.9656 10.9344 17.6424C10.4832 17.6424 10.2576 17.868 9.5808 17.868C8.2272 18.096 7.3224 16.9656 7.3224 15.612C7.3224 14.2584 7.9992 13.5792 8.9016 13.3536C12.516 12.4512 16.3536 12 20.4168 12C27.4152 12 34.6392 13.5792 40.284 16.5144C40.9608 16.9656 41.6376 17.6424 41.6376 18.7728C41.412 20.1264 40.5072 21.0288 39.1536 21.0288Z" fill="#20DB60"/>
</svg>
